<svg xmlns="http://www.w3.org/2000/svg" width="94.591" height="16.884" viewBox="0 0 94.591 16.884">
  <defs>
    <style>
      <!-- .cls-1 {
        fill: #72767d;
      } -->
    </style>
  </defs>
  <g id="页面-1" transform="translate(-0.743 -0.477)">
    <g id="页眉备份-3" transform="translate(0.743 0.477)">
      <g id="页眉">
        <g id="位图">
          <g id="logo-横备份" transform="translate(0 0)">
            <g id="logo" transform="translate(0 0)">
              <g id="logo-横备份-2" data-name="logo-横备份">
                <g id="形状结合">
                  <path id="形状结合-3备份" class="cls-1" d="M52.863,17.212a1.905,1.905,0,0,1-.606-1.4,1.946,1.946,0,0,1,.606-1.412,1.992,1.992,0,0,1,1.449-.605,2.132,2.132,0,0,1,.821.164,2.031,2.031,0,0,1,.671.441,2.254,2.254,0,0,1,.449.643,1.8,1.8,0,0,1,.171.768,1.884,1.884,0,0,1-.616,1.4,2.086,2.086,0,0,1-1.488.589A2.013,2.013,0,0,1,52.863,17.212Zm23.01.038a6.264,6.264,0,0,1-1.9-1.3,6.347,6.347,0,0,1-1.3-1.93,5.858,5.858,0,0,1-.488-2.371,6,6,0,0,1,2.964-5.233,6.228,6.228,0,0,1,2.912-.844c.091,0,.185-.007.276-.007a6.228,6.228,0,0,1,2.886.739.287.287,0,0,1,.168.158.2.2,0,0,1-.037.17l-1,1.739A.74.74,0,0,1,80,8.669a.5.5,0,0,1-.181.036.488.488,0,0,1-.255-.075,3.9,3.9,0,0,0-1.448-.252A2.9,2.9,0,0,0,76.9,8.63a3,3,0,0,0-.962.694,3.143,3.143,0,0,0-.633,1.047,3.707,3.707,0,0,0-.225,1.286,3.3,3.3,0,0,0,.857,2.332,2.85,2.85,0,0,0,2.174.921,3.96,3.96,0,0,0,1.383-.24,3.281,3.281,0,0,0,1.871-1.714,3.06,3.06,0,0,0,.277-1.3,2.875,2.875,0,0,0-.145-.895,3.988,3.988,0,0,0-.356-.795.524.524,0,0,1,.1-.654l1.671-1.439a.208.208,0,0,1,.138-.069.138.138,0,0,1,.1.044,6.455,6.455,0,0,1,1.026,1.777,5.819,5.819,0,0,1-.133,4.4,6.052,6.052,0,0,1-1.37,1.93,6.623,6.623,0,0,1-4.557,1.778,5.508,5.508,0,0,1-2.242-.482Zm-12.268,0a6.222,6.222,0,0,1-1.9-1.3,6.322,6.322,0,0,1-1.3-1.93,5.791,5.791,0,0,1-.477-2.013l-.01-.408A5.836,5.836,0,0,1,60.4,9.23a6.312,6.312,0,0,1,1.3-1.93A6.222,6.222,0,0,1,63.6,6a5.494,5.494,0,0,1,2.239-.479,7.115,7.115,0,0,1,2.9.632,2.729,2.729,0,0,1,.251.213.306.306,0,0,1,.039.341l-.947,1.664a.743.743,0,0,1-.356.295.5.5,0,0,1-.182.036.486.486,0,0,1-.252-.075,3.914,3.914,0,0,0-1.45-.252,2.833,2.833,0,0,0-1.183.252,3.011,3.011,0,0,0-.962.694,3.374,3.374,0,0,0-.646,1.034,3.421,3.421,0,0,0-.236,1.277,3.508,3.508,0,0,0,.236,1.286,3.182,3.182,0,0,0,.646,1.034,3.076,3.076,0,0,0,.962.681,2.846,2.846,0,0,0,1.186.252,3.927,3.927,0,0,0,1.45-.252.465.465,0,0,1,.434-.037.737.737,0,0,1,.356.295l.9,1.538a.353.353,0,0,1,.065.393.621.621,0,0,1-.308.289,8.184,8.184,0,0,1-1.251.442,6.387,6.387,0,0,1-1.642.19,5.494,5.494,0,0,1-2.241-.488Zm40.715.3a.658.658,0,0,1-.474-.177.577.577,0,0,1-.184-.428V10.52a2.431,2.431,0,0,0-.1-.667,1.842,1.842,0,0,0-.355-.669,2.093,2.093,0,0,0-.672-.517,2.391,2.391,0,0,0-1.08-.215,2.45,2.45,0,0,0-1.713.656,2.489,2.489,0,0,0-.712,1.917v6a.489.489,0,0,1-.17.379.609.609,0,0,1-.411.151H96.6a.551.551,0,0,1-.411-.177.6.6,0,0,1-.171-.428V10.52a2.491,2.491,0,0,0-.1-.667,1.9,1.9,0,0,0-1.042-1.21,2.464,2.464,0,0,0-1.093-.215,1.594,1.594,0,0,0-.751.19,2.3,2.3,0,0,0-.645.517,2.492,2.492,0,0,0-.461.794,2.958,2.958,0,0,0-.171,1.022v6a.579.579,0,0,1-.183.428.6.6,0,0,1-.423.177H89.356a.646.646,0,0,1-.448-.177.591.591,0,0,1-.185-.429V6.486a.508.508,0,0,1,.185-.393.654.654,0,0,1,.449-.164h1.632a.643.643,0,0,1,.461.164.524.524,0,0,1,.171.393v.151a.213.213,0,0,0,.067.163.2.2,0,0,0,.081.056l.037.008a.654.654,0,0,0,.163.029.09.09,0,0,0,.06-.017.572.572,0,0,0,.092-.139,3.11,3.11,0,0,1,2.371-1.21,4.39,4.39,0,0,1,2.149.517,4.626,4.626,0,0,1,1.342,1.1l.171.225c.091.138.185.208.279.208s.181-.062.274-.184V7.368A5.688,5.688,0,0,1,99.788,6.4a3.328,3.328,0,0,1,1.173-.618,4.232,4.232,0,0,1,1.172-.19,4.739,4.739,0,0,1,1.9.366A4.208,4.208,0,0,1,105.48,7a4.715,4.715,0,0,1,.935,1.588,6.016,6.016,0,0,1,.329,2.036v6.329a.577.577,0,0,1-.184.428.656.656,0,0,1-.476.177Z" transform="translate(-12.153 -1.284)"/>
                  <path id="路径_943" data-name="路径 943" class="cls-1" d="M7.818,0a8.636,8.636,0,0,1,4.052.944,5.978,5.978,0,0,1,2.684,2.721,7.77,7.77,0,0,1,.872,3.428v7.741a2.09,2.09,0,0,1-4.179,0V7.992a3.973,3.973,0,0,0-.962-2.853,3.559,3.559,0,0,0-2.706-1.01,3.189,3.189,0,0,0-2.451,1,3.743,3.743,0,0,0-.932,2.654v7.041a2.077,2.077,0,0,1-2.1,2.057A2.077,2.077,0,0,1,0,14.827V6.886A7.134,7.134,0,0,1,1.879,2.219Q3.758,0,7.818,0Zm19.11,0a8.636,8.636,0,0,1,4.052.944,5.979,5.979,0,0,1,2.684,2.721,7.77,7.77,0,0,1,.872,3.428v7.741a2.09,2.09,0,0,1-4.179,0V7.992a3.973,3.973,0,0,0-.962-2.853,3.559,3.559,0,0,0-2.706-1.01,3.189,3.189,0,0,0-2.451,1A3.743,3.743,0,0,0,23.3,7.786v7.041a2.1,2.1,0,0,1-4.194,0V6.886a7.134,7.134,0,0,1,1.879-4.667Q22.868,0,26.927,0Z"/>
                </g>
              </g>
            </g>
          </g>
        </g>
      </g>
    </g>
  </g>
</svg>
