<?xml version="1.0" standalone="no"?><!DOCTYPE svg PUBLIC "-//W3C//DTD SVG 1.1//EN" "http://www.w3.org/Graphics/SVG/1.1/DTD/svg11.dtd"><svg t="1590465174478" class="icon" viewBox="0 0 1024 1024" version="1.1" xmlns="http://www.w3.org/2000/svg" p-id="3326" width="14" height="14" xmlns:xlink="http://www.w3.org/1999/xlink"><defs><style type="text/css">html, * { user-select: text !important; }
</style></defs><path d="M753.525296 949.361081a67.837613 67.837613 0 0 1-77.925534 73.904986c-139.403371 0-530.200656 0.511706-597.599664 0C2.413792 1022.68126 0.001463 984.815006 0.001463 949.361081a385.168518 385.168518 0 0 1 269.011225-368.428417 200.588805 200.588805 0 0 1-101.829521-185.091419 209.434011 209.434011 0 1 1 418.868022 0 203.220436 203.220436 0 0 1-105.119061 185.091419 387.434645 387.434645 0 0 1 272.520067 368.428417z" fill="#DCDDDE" p-id="3327"></path><path d="M584.808474 175.369002m43.933626 0l350.738005 0q43.933627 0 43.933627 43.933627l0-0.073101q0 43.933627-43.933627 43.933627l-350.738005 0q-43.933627 0-43.933626-43.933627l0 0.073101q0-43.933627 43.933626-43.933627Z" fill="#DCDDDE" p-id="3328"></path><path d="M847.971629 0m0 43.933627l0 350.738004q0 43.933627-43.933627 43.933627l0.073101 0q-43.933627 0-43.933627-43.933627l0-350.738004q0-43.933627 43.933627-43.933627l-0.073101 0q43.933627 0 43.933627 43.933627Z" fill="#DCDDDE" p-id="3329"></path></svg>