<?xml version="1.0" standalone="no"?><!DOCTYPE svg PUBLIC "-//W3C//DTD SVG 1.1//EN" "http://www.w3.org/Graphics/SVG/1.1/DTD/svg11.dtd"><svg t="1589771686504" class="icon" viewBox="0 0 1024 1024" version="1.1" xmlns="http://www.w3.org/2000/svg" p-id="2809" width="22" height="22" xmlns:xlink="http://www.w3.org/1999/xlink"><defs><style type="text/css">html, * { user-select: text !important; }
</style></defs><path d="M511.999767 1023.996742a508.692267 508.692267 0 0 1-362.214587-149.782388A508.831902 508.831902 0 0 1 0.002793 511.999767a508.692267 508.692267 0 0 1 149.782387-362.214587A508.692267 508.692267 0 0 1 511.999767 0.002793a508.506086 508.506086 0 0 1 361.097503 150.294384A508.040634 508.040634 0 0 1 1023.996742 511.999767a508.924993 508.924993 0 0 1-149.735843 362.261132A508.878448 508.878448 0 0 1 511.999767 1023.996742zM213.365896 511.999767A299.006233 299.006233 0 0 0 511.999767 810.680184 299.006233 299.006233 0 0 0 810.633639 511.999767z m490.632737-213.270012a64.046167 64.046167 0 0 0-63.999622 63.953076 64.092712 64.092712 0 0 0 63.999622 64.046167A64.092712 64.092712 0 0 0 767.998255 362.682831a64.092712 64.092712 0 0 0-63.999622-63.999621z m-383.997731 0A61.858544 61.858544 0 0 0 256.00128 362.682831a61.905089 61.905089 0 0 0 63.999622 64.046167A61.905089 61.905089 0 0 0 384.000524 362.682831a60.508733 60.508733 0 0 0-15.964997-42.681929 29.276918 29.276918 0 0 0-5.678512-4.282157c-2.978891-1.861807-5.026879-3.071982-5.026879-6.330144a98.256874 98.256874 0 0 0-37.329234-10.705391zM511.999767 725.36287a213.316558 213.316558 0 0 1-195.489754-127.999244h390.979508a213.549284 213.549284 0 0 1-195.489754 127.952699z" fill="#72767D" p-id="2810"></path></svg>