<?xml version="1.0" standalone="no"?><!DOCTYPE svg PUBLIC "-//W3C//DTD SVG 1.1//EN" "http://www.w3.org/Graphics/SVG/1.1/DTD/svg11.dtd"><svg t="1590465188760" class="icon" viewBox="0 0 1024 1024" version="1.1" xmlns="http://www.w3.org/2000/svg" p-id="3477" xmlns:xlink="http://www.w3.org/1999/xlink" width="14" height="14"><defs><style type="text/css">html, * { user-select: text !important; }
</style></defs><path d="M949.378689 521.216214a28.378962 28.378962 0 0 0-20.406522-8.338148 29.841795 29.841795 0 0 0-20.406522 8.338148l-52.223142 51.199159L966.420695 680.226173l49.151192-54.34425a27.574404 27.574404 0 0 0 8.484432-19.89453 28.159537 28.159537 0 0 0-8.484432-19.89453z m-359.930087-114.100982H271.794392a61.731557 61.731557 0 1 1 0-123.389973h317.65421a61.731557 61.731557 0 1 1 0 123.389973zM461.743271 655.358011h-190.168304a61.731557 61.731557 0 1 1 0-123.389973h190.168304a61.731557 61.731557 0 1 1 0 123.389973zM734.342222 0.008777H153.085485A151.54951 151.54951 0 0 0 0 149.949171v724.10239A151.54951 151.54951 0 0 0 153.085485 1023.991954h211.452526v-134.361221l523.109121-524.279387V150.095454A151.695794 151.695794 0 0 0 734.342222 0.008777zM502.483173 916.181154V1023.991954h110.297617l318.824476-315.606243-110.078191-108.030225z" fill="#72767D" p-id="3478"></path></svg>