<?xml version="1.0" standalone="no"?><!DOCTYPE svg PUBLIC "-//W3C//DTD SVG 1.1//EN" "http://www.w3.org/Graphics/SVG/1.1/DTD/svg11.dtd"><svg t="1589770706182" class="icon" viewBox="0 0 1228 1024" version="1.1" xmlns="http://www.w3.org/2000/svg" p-id="3046" width="38.375" height="32" xmlns:xlink="http://www.w3.org/1999/xlink"><defs><style type="text/css">html, * { user-select: text !important; }
</style></defs><path d="M499.2 635.7504a388.3008 388.3008 0 0 1 388.1984 379.5968v8.704H0a388.2496 388.2496 0 0 1 388.2496-388.2496z" fill="#1BB4F8" p-id="3047"></path><path d="M748.8 0v305.0496A305.0496 305.0496 0 1 1 443.7504 0z" fill="#43B480" p-id="3048"></path><path d="M1113.6512 399.36A118.6816 118.6816 0 0 0 1024 458.9056 118.6816 118.6816 0 0 0 934.3488 399.36 120.2688 120.2688 0 0 0 819.2 523.776a159.2832 159.2832 0 0 0 49.408 102.4 670.72 670.72 0 0 0 155.8016 131.584 646.8096 646.8096 0 0 0 154.4192-131.0208A159.8976 159.8976 0 0 0 1228.8 523.776a120.2688 120.2688 0 0 0-115.1488-124.5696z" fill="#43B480" p-id="3049"></path></svg>