<?xml version="1.0" standalone="no"?><!DOCTYPE svg PUBLIC "-//W3C//DTD SVG 1.1//EN" "http://www.w3.org/Graphics/SVG/1.1/DTD/svg11.dtd"><svg t="1589868683456" class="icon" viewBox="0 0 1297 1024" version="1.1" xmlns="http://www.w3.org/2000/svg" p-id="3248" xmlns:xlink="http://www.w3.org/1999/xlink" width="27.865234375" height="22"><defs><style type="text/css">html, * { user-select: text !important; }
</style></defs><path d="M955.702114 933.07177c-0.409587 45.259322-20.479331 90.382114-98.846905 90.382115-176.804891 0-672.472966 0.61438-757.735247 0C3.0719 1023.112562 0 976.829274 0 933.07177a473.27734 473.27734 0 0 1 341.322183-450.545282 243.56751 243.56751 0 0 1-129.156314-225.955285A261.589321 261.589321 0 0 1 477.851057 0.03345a261.657586 261.657586 0 0 1 265.616923 256.81081 247.048996 247.048996 0 0 1-133.456974 225.682228 476.349239 476.349239 0 0 1 345.691108 450.545282z" fill="#72767D" p-id="3249"></path><path d="M819.17324 273.091196m34.132219 0l273.057746 0q34.132218 0 34.132219 34.132219l0 0q0 34.132218-34.132219 34.132218l-273.057746 0q-34.132218 0-34.132219-34.132218l0 0q0-34.132218 34.132219-34.132219Z" fill="#72767D" p-id="3250"></path><path d="M819.17324 68.297886m34.132219 0l341.322183 0q34.132218 0 34.132219 34.132219l0 0q0 34.132218-34.132219 34.132218l-341.322183 0q-34.132218 0-34.132219-34.132218l0 0q0-34.132218 34.132219-34.132219Z" fill="#72767D" p-id="3251"></path><path d="M819.17324 477.884506m34.132219 0l341.322183 0q34.132218 0 34.132219 34.132219l0 0q0 34.132218-34.132219 34.132218l-341.322183 0q-34.132218 0-34.132219-34.132218l0 0q0-34.132218 34.132219-34.132219Z" fill="#72767D" p-id="3252"></path></svg>