<?xml version="1.0" standalone="no"?><!DOCTYPE svg PUBLIC "-//W3C//DTD SVG 1.1//EN" "http://www.w3.org/Graphics/SVG/1.1/DTD/svg11.dtd"><svg t="1589771699578" class="icon" viewBox="0 0 1126 1024" version="1.1" xmlns="http://www.w3.org/2000/svg" p-id="2958" xmlns:xlink="http://www.w3.org/1999/xlink" width="24.19140625" height="22"><defs><style type="text/css">html, * { user-select: text !important; }
</style></defs><path d="M972.8 1024H153.6a153.6 153.6 0 0 1-153.6-153.6V153.6a153.6 153.6 0 0 1 153.6-153.6h819.2a153.6 153.6 0 0 1 153.6 153.6v716.8a153.6 153.6 0 0 1-153.6 153.6zM305.3568 488.2944a37.9904 37.9904 0 0 0-27.648 11.3664l-164.7616 172.544a38.4512 38.4512 0 0 0 1.2288 54.2208 38.1952 38.1952 0 0 0 26.5216 10.7008 38.1952 38.1952 0 0 0 27.7504-11.8272l136.96-143.36 137.0624 143.36a38.3488 38.3488 0 0 0 27.7504 11.3152 38.144 38.144 0 0 0 27.648-11.3152l260.2496-272.4864 233.3184 250.5216a38.4 38.4 0 0 0 28.1088 12.288 38.1952 38.1952 0 0 0 26.112-10.24 38.144 38.144 0 0 0 12.2368-26.7264 38.144 38.144 0 0 0-10.24-27.5456l-261.12-280.2688a37.7856 37.7856 0 0 0-27.8528-12.288 40.0384 40.0384 0 0 0-27.9552 11.8272l-260.5056 272.7936-137.0624-143.36a38.656 38.656 0 0 0-27.8016-11.52z" fill="#72767D" p-id="2959"></path></svg>